<svg width="38" height="16" viewBox="0 0 38 16" fill="none" xmlns="http://www.w3.org/2000/svg">
<path d="M16 11L14.25 9.25C14.4722 8.94444 14.625 8.63167 14.7084 8.31167C14.7917 7.99278 14.8334 7.66667 14.8334 7.33333C14.8334 7 14.7917 6.67333 14.7084 6.35333C14.625 6.03444 14.4722 5.73611 14.25 5.45833L16 3.66667C16.4445 4.19444 16.7778 4.77778 17 5.41667C17.2222 6.05556 17.3334 6.69444 17.3334 7.33333C17.3334 7.97222 17.2222 8.60389 17 9.22833C16.7778 9.85389 16.4445 10.4444 16 11ZM19.5417 14.5833L17.75 12.7917C18.4445 12.0139 18.9656 11.1528 19.3134 10.2083C19.66 9.26389 19.8334 8.30556 19.8334 7.33333C19.8334 6.36111 19.66 5.40944 19.3134 4.47833C18.9656 3.54833 18.4445 2.69444 17.75 1.91667L19.5417 0.125C20.4861 1.15278 21.1878 2.28444 21.6467 3.52C22.1045 4.75667 22.3334 6.02778 22.3334 7.33333C22.3334 8.63889 22.1045 9.91667 21.6467 11.1667C21.1878 12.4167 20.4861 13.5556 19.5417 14.5833ZM7.33335 9C6.41669 9 5.63169 8.67333 4.97835 8.02C4.32613 7.36778 4.00002 6.58333 4.00002 5.66667C4.00002 4.75 4.32613 3.965 4.97835 3.31167C5.63169 2.65944 6.41669 2.33333 7.33335 2.33333C8.25002 2.33333 9.03447 2.65944 9.68669 3.31167C10.34 3.965 10.6667 4.75 10.6667 5.66667C10.6667 6.58333 10.34 7.36778 9.68669 8.02C9.03447 8.67333 8.25002 9 7.33335 9ZM0.666687 15.6667V14.7083C0.666687 14.0417 0.847243 13.4306 1.20835 12.875C1.56946 12.3194 2.06946 11.9028 2.70835 11.625C3.43058 11.3194 4.17335 11.0833 4.93669 10.9167C5.70113 10.75 6.50002 10.6667 7.33335 10.6667C8.16669 10.6667 8.96558 10.75 9.73002 10.9167C10.4934 11.0833 11.2361 11.3194 11.9584 11.625C12.5972 11.9028 13.0972 12.3194 13.4584 12.875C13.8195 13.4306 14 14.0417 14 14.7083V15.6667H0.666687ZM30.6667 9C29.75 9 28.965 8.67333 28.3117 8.02C27.6595 7.36778 27.3334 6.58333 27.3334 5.66667C27.3334 4.75 27.6595 3.965 28.3117 3.31167C28.965 2.65944 29.75 2.33333 30.6667 2.33333C31.5834 2.33333 32.3684 2.65944 33.0217 3.31167C33.6739 3.965 34 4.75 34 5.66667C34 6.58333 33.6739 7.36778 33.0217 8.02C32.3684 8.67333 31.5834 9 30.6667 9ZM24 15.6667V14.7083C24 14.0417 24.1806 13.4306 24.5417 12.875C24.9028 12.3194 25.4028 11.9028 26.0417 11.625C26.7639 11.3194 27.5067 11.0833 28.27 10.9167C29.0345 10.75 29.8334 10.6667 30.6667 10.6667C31.5 10.6667 32.2989 10.75 33.0634 10.9167C33.8267 11.0833 34.5695 11.3194 35.2917 11.625C35.9306 11.9028 36.4306 12.3194 36.7917 12.875C37.1528 13.4306 37.3334 14.0417 37.3334 14.7083V15.6667H24Z" fill="#898989"/>
</svg>
