<svg width="40" height="37" viewBox="0 0 40 37" fill="none" xmlns="http://www.w3.org/2000/svg">
<path d="M4.5 29.75V35.375M6.375 14.75V5.375C6.375 4.38044 6.77009 3.42661 7.47335 2.72335C8.17661 2.02009 9.13044 1.625 10.125 1.625H28.875C29.8696 1.625 30.8234 2.02009 31.5266 2.72335C32.2299 3.42661 32.625 4.38044 32.625 5.375V14.75" stroke="#898989" stroke-width="1.5" stroke-linecap="round" stroke-linejoin="round"/>
<path d="M34.5 29.75V35.375M33.5625 14.75C32.3193 14.75 31.127 15.2439 30.2479 16.1229C29.3689 17.002 28.875 18.1943 28.875 19.4375V22.25H10.125V19.4375C10.1248 18.5506 9.87303 17.6819 9.39887 16.9324C8.92472 16.1829 8.24765 15.5833 7.44632 15.2032C6.64499 14.8231 5.75227 14.6782 4.87185 14.7852C3.99142 14.8922 3.15943 15.2468 2.47249 15.8078C1.78556 16.3688 1.27187 17.1132 0.991098 17.9545C0.710322 18.7958 0.673979 19.6995 0.88629 20.5606C1.0986 21.4217 1.55085 22.2049 2.19052 22.8193C2.83018 23.4336 3.63102 23.8539 4.5 24.0313V29.75H34.5V24.0313C35.6392 23.7999 36.6518 23.1536 37.3413 22.2176C38.0307 21.2817 38.3478 20.123 38.231 18.9664C38.1142 17.8098 37.5717 16.7379 36.7091 15.9588C35.8464 15.1796 34.725 14.7488 33.5625 14.75V14.75Z" stroke="#898989" stroke-width="1.5" stroke-linecap="round" stroke-linejoin="round"/>
</svg>
