<svg width="25" height="30" viewBox="0 0 25 30" fill="none" xmlns="http://www.w3.org/2000/svg">
<path d="M2.97812 15.5H7C7.25208 15.5 7.49271 15.5628 7.72187 15.6884C7.95104 15.8149 8.12292 16.0042 8.2375 16.2563L9.75 19.2812L14.0125 10.7563C14.2646 10.2292 14.6771 9.96562 15.25 9.96562C15.8229 9.96562 16.2354 10.2292 16.4875 10.7563L18.8594 15.5H22.0219C21.6781 13.1625 20.6125 11.2031 18.825 9.62187C17.0375 8.04063 14.9292 7.25 12.5 7.25C10.0708 7.25 7.9625 8.04063 6.175 9.62187C4.3875 11.2031 3.32187 13.1625 2.97812 15.5ZM12.5 26.5C14.9292 26.5 17.0375 25.7094 18.825 24.1281C20.6125 22.5469 21.6781 20.5875 22.0219 18.25H18C17.7479 18.25 17.5073 18.1872 17.2781 18.0616C17.049 17.9351 16.8771 17.7458 16.7625 17.4937L15.25 14.4688L10.9875 22.9938C10.7354 23.5208 10.3229 23.7844 9.75 23.7844C9.17708 23.7844 8.76458 23.5208 8.5125 22.9938L6.14062 18.25H2.97812C3.32187 20.5875 4.3875 22.5469 6.175 24.1281C7.9625 25.7094 10.0708 26.5 12.5 26.5ZM12.5 29.25C10.8042 29.25 9.2055 28.9237 7.704 28.271C6.20342 27.6174 4.89167 26.7292 3.76875 25.6063C2.64583 24.4833 1.75758 23.1716 1.104 21.671C0.451333 20.1695 0.125 18.5708 0.125 16.875H2.875C2.875 19.5333 3.81458 21.8021 5.69375 23.6813C7.57292 25.5604 9.84167 26.5 12.5 26.5C15.1583 26.5 17.4271 25.5604 19.3063 23.6813C21.1854 21.8021 22.125 19.5333 22.125 16.875H24.875C24.875 18.5708 24.5487 20.1695 23.896 21.671C23.2424 23.1716 22.3542 24.4833 21.2313 25.6063C20.1083 26.7292 18.7966 27.6174 17.296 28.271C15.7945 28.9237 14.1958 29.25 12.5 29.25ZM0.125 16.875C0.125 15.1792 0.451333 13.5805 1.104 12.079C1.75758 10.5784 2.64583 9.26667 3.76875 8.14375C4.89167 7.02083 6.20342 6.13304 7.704 5.48037C9.2055 4.82679 10.8042 4.5 12.5 4.5C13.9208 4.5 15.2844 4.72917 16.5906 5.1875C17.8969 5.64583 19.1229 6.31042 20.2687 7.18125L21.2313 6.21875C21.4833 5.96667 21.8042 5.84062 22.1937 5.84062C22.5833 5.84062 22.9042 5.96667 23.1562 6.21875C23.4083 6.47083 23.5344 6.79167 23.5344 7.18125C23.5344 7.57083 23.4083 7.89167 23.1562 8.14375L22.1937 9.10625C23.0646 10.2521 23.7292 11.4781 24.1875 12.7844C24.6458 14.0906 24.875 15.4542 24.875 16.875H22.125C22.125 14.2167 21.1854 11.9479 19.3063 10.0688C17.4271 8.18958 15.1583 7.25 12.5 7.25C9.84167 7.25 7.57292 8.18958 5.69375 10.0688C3.81458 11.9479 2.875 14.2167 2.875 16.875H0.125ZM9.75 3.125C9.36042 3.125 9.03408 2.993 8.771 2.729C8.507 2.46592 8.375 2.13958 8.375 1.75C8.375 1.36042 8.507 1.03362 8.771 0.769625C9.03408 0.506542 9.36042 0.375 9.75 0.375H15.25C15.6396 0.375 15.9664 0.506542 16.2304 0.769625C16.4935 1.03362 16.625 1.36042 16.625 1.75C16.625 2.13958 16.4935 2.46592 16.2304 2.729C15.9664 2.993 15.6396 3.125 15.25 3.125H9.75ZM12.5 26.5C9.84167 26.5 7.57292 25.5604 5.69375 23.6813C3.81458 21.8021 2.875 19.5333 2.875 16.875C2.875 14.2167 3.81458 11.9479 5.69375 10.0688C7.57292 8.18958 9.84167 7.25 12.5 7.25C15.1583 7.25 17.4271 8.18958 19.3063 10.0688C21.1854 11.9479 22.125 14.2167 22.125 16.875C22.125 19.5333 21.1854 21.8021 19.3063 23.6813C17.4271 25.5604 15.1583 26.5 12.5 26.5Z" fill="#898989"/>
</svg>
